<svg width="20" height="20" viewBox="0 0 20 20" fill="none" xmlns="http://www.w3.org/2000/svg">
<path d="M9.99579 17.2948C9.65676 17.2948 9.3628 17.1826 9.11391 16.9583C8.86502 16.734 8.71384 16.4531 8.66037 16.1154H11.34C11.2865 16.4572 11.1338 16.7392 10.882 16.9615C10.6301 17.1837 10.3347 17.2948 9.99579 17.2948ZM7.41683 14.4744V13.8077H12.5835V14.4744H7.41683ZM6.94412 12.1667C6.25398 11.6924 5.72968 11.0901 5.3712 10.3598C5.01273 9.62952 4.8335 8.84293 4.8335 8.00001C4.8335 6.55765 5.33405 5.33598 6.33516 4.33501C7.33613 3.3339 8.5578 2.83334 10.0002 2.83334C11.4425 2.83334 12.6642 3.3339 13.6652 4.33501C14.6663 5.33598 15.1668 6.55765 15.1668 8.00001C15.1668 8.84293 14.9876 9.62952 14.6291 10.3598C14.2706 11.0901 13.7463 11.6924 13.0562 12.1667H6.94412ZM7.16683 11.5H12.8335C13.3613 11.0695 13.771 10.5486 14.0627 9.93751C14.3543 9.3264 14.5002 8.68057 14.5002 8.00001C14.5002 6.74543 14.0643 5.68182 13.1925 4.80918C12.3206 3.9364 11.2581 3.50001 10.005 3.50001C8.75176 3.50001 7.68766 3.9364 6.81266 4.80918C5.93766 5.68182 5.50016 6.74543 5.50016 8.00001C5.50016 8.68057 5.646 9.3264 5.93766 9.93751C6.22933 10.5486 6.63905 11.0695 7.16683 11.5Z" fill="#E3D1B2"/>
</svg>
