<svg width="20" height="20" viewBox="0 0 20 20" fill="none" xmlns="http://www.w3.org/2000/svg">
<path d="M6.00775 16.1025L5.9165 15.3975L7.94213 9.83979C8.04046 9.89632 8.13866 9.94771 8.23671 9.99396C8.33477 10.0401 8.43532 10.079 8.53838 10.1106L6.564 15.6298L6.00775 16.1025ZM13.9919 16.1025L13.4357 15.609L11.4613 10.1106C11.5644 10.079 11.6649 10.0401 11.763 9.99396C11.861 9.94771 11.9592 9.88938 12.0575 9.81896L14.0832 15.3975L13.9919 16.1025ZM9.99984 8.58333C9.42289 8.58333 8.93143 8.38035 8.52546 7.97438C8.11949 7.5684 7.9165 7.07694 7.9165 6.5C7.9165 5.93056 8.0965 5.45993 8.4565 5.08812C8.81664 4.71632 9.21998 4.50208 9.6665 4.44542V3H10.3332V4.44542C10.7797 4.50208 11.183 4.71632 11.5432 5.08812C11.9032 5.45993 12.0832 5.93056 12.0832 6.5C12.0832 7.07694 11.8802 7.5684 11.4742 7.97438C11.0682 8.38035 10.5768 8.58333 9.99984 8.58333ZM9.99984 7.91667C10.39 7.91667 10.7237 7.77812 11.0009 7.50104C11.278 7.22382 11.4165 6.89014 11.4165 6.5C11.4165 6.10986 11.278 5.77618 11.0009 5.49896C10.7237 5.22188 10.39 5.08333 9.99984 5.08333C9.6097 5.08333 9.27602 5.22188 8.9988 5.49896C8.72171 5.77618 8.58317 6.10986 8.58317 6.5C8.58317 6.89014 8.72171 7.22382 8.9988 7.50104C9.27602 7.77812 9.6097 7.91667 9.99984 7.91667Z" fill="#E3D1B2"/>
</svg>
