<svg width="20" height="20" viewBox="0 0 20 20" fill="none" xmlns="http://www.w3.org/2000/svg">
<path d="M9.66683 16.3029V10.1971L4.50016 7.20667V13.024C4.50016 13.1095 4.52155 13.1897 4.56433 13.2644C4.60697 13.3392 4.67107 13.4033 4.75662 13.4567L9.66683 16.3029ZM10.3335 16.3029L15.2437 13.4775C15.3293 13.4242 15.3934 13.3601 15.436 13.2852C15.4788 13.2105 15.5002 13.1303 15.5002 13.0448V7.2275L10.3335 10.1971V16.3029ZM10.0002 9.60584L15.3127 6.55292L10.2358 3.64417C10.1502 3.59084 10.0647 3.56417 9.97933 3.56417C9.89391 3.56417 9.80843 3.59084 9.72287 3.64417L4.68766 6.55292L10.0002 9.60584ZM4.42329 14.0481C4.23912 13.9429 4.09482 13.7992 3.99037 13.6173C3.88579 13.4355 3.8335 13.2393 3.8335 13.0288V6.97125C3.8335 6.7607 3.88579 6.56452 3.99037 6.38271C4.09482 6.20077 4.23912 6.05716 4.42329 5.95188L9.38954 3.07375C9.57232 2.96695 9.77586 2.91354 10.0002 2.91354C10.2245 2.91354 10.428 2.96695 10.6108 3.07375L15.577 5.95188C15.7612 6.05716 15.9055 6.20077 16.01 6.38271C16.1145 6.56452 16.1668 6.7607 16.1668 6.97125V13.0288C16.1668 13.2393 16.1145 13.4355 16.01 13.6173C15.9055 13.7992 15.7612 13.9429 15.577 14.0481L10.59 16.9471C10.4054 17.0539 10.2083 17.1073 9.9987 17.1073C9.78926 17.1073 9.59315 17.0539 9.41037 16.9471L4.42329 14.0481Z" fill="#E3D1B2"/>
</svg>
